<?xml version="1.0" encoding="UTF-8" standalone="no"?>
<!-- Created with Inkscape (http://www.inkscape.org/) -->

<svg
   width="210mm"
   height="297mm"
   viewBox="0 0 210 297"
   version="1.1"
   id="svg1"
   inkscape:version="1.4.4 (dcaf3e7, 2026-05-05)"
   sodipodi:docname="výkres.svg"
   xmlns:inkscape="http://www.inkscape.org/namespaces/inkscape"
   xmlns:sodipodi="http://sodipodi.sourceforge.net/DTD/sodipodi-0.dtd"
   xmlns="http://www.w3.org/2000/svg"
   xmlns:svg="http://www.w3.org/2000/svg">
  <sodipodi:namedview
     id="namedview1"
     pagecolor="#ffffff"
     bordercolor="#000000"
     borderopacity="0.25"
     inkscape:showpageshadow="2"
     inkscape:pageopacity="0.0"
     inkscape:pagecheckerboard="0"
     inkscape:deskcolor="#d1d1d1"
     inkscape:document-units="mm"
     inkscape:zoom="0.68862935"
     inkscape:cx="396.43968"
     inkscape:cy="561.25984"
     inkscape:window-width="1920"
     inkscape:window-height="991"
     inkscape:window-x="-9"
     inkscape:window-y="-9"
     inkscape:window-maximized="1"
     inkscape:current-layer="layer1" />
  <defs
     id="defs1">
    <rect
       x="87.1296"
       y="63.89504"
       width="660.7328"
       height="614.26369"
       id="rect9" />
  </defs>
  <g
     inkscape:label="Vrstva 1"
     inkscape:groupmode="layer"
     id="layer1">
    <path
       style="fill:#800000;stroke-width:2.75601"
       d="M -0.38421733,0 C 3.5842336,-0.28477064 7.5425238,-0.93131888 11.52652,-1.152652 c 1.790253,-0.099458 3.596995,0.19800532 5.379042,0 0.402524,-0.044725 0.753162,-0.3176356 1.152652,-0.3842173 0.88431,-0.1473849 1.798498,0.099003 2.689522,0 0.64905,-0.072117 1.273086,-0.3032172 1.921086,-0.3842173 1.760987,-0.2201234 3.611057,0.1473322 5.379043,0 0.776343,-0.064695 1.528961,-0.3195221 2.305304,-0.3842174 5.676458,-0.4730382 11.593922,0 17.28978,0 4.662212,0 9.572601,-0.4221308 14.216041,0 2.175486,0.1977714 4.345892,0.5862844 6.531694,0.7684347 4.331888,0.3609906 8.729046,0.050806 13.06339,0.3842173 0.651121,0.050086 1.270725,0.32509353 1.921086,0.38421734 2.284826,0.20771138 4.627462,-0.16346066 6.915912,0 2.694279,0.19244847 5.374286,0.57598619 8.068564,0.76843466 1.916204,0.13687176 3.845914,-0.11983409 5.763264,0 3.9709,0.2481816 7.93983,0.52025314 11.91073,0.76843466 2.17299,0.13581197 4.35782,-0.12077107 6.5317,0 1.15796,0.0643311 2.3053,0.25614494 3.45795,0.38421734 1.4088,0.1280724 2.81339,0.3169314 4.22639,0.3842173 10.41324,0.4958686 21.03573,1.3194924 31.50583,0.7684347 5.48075,-0.2884606 10.7354,-1.43002041 16.13712,-1.92108667 2.29584,-0.20871242 4.61061,0 6.91592,0 2.90934,0 5.94291,-0.2630989 8.83699,0 5.11939,0.4653989 10.32134,1.35892447 15.3687,2.30530397 3.55124,0.6658589 7.33878,1.0662602 10.75808,1.9210866 0.37275,0.093187 0.83297,-0.2131253 1.15265,0 3.04897,2.0326464 -0.006,-0.00876 0.76844,1.152652 0.20094,0.3014049 0.58206,0.4578133 0.76843,0.7684347 1.31748,2.1957993 1.92576,5.2172634 2.30531,7.6843464 0.37018,2.4062 0.95125,4.883344 1.15265,7.300129 0.27248,3.2697 0,6.707259 0,9.989651 0,5.507114 0,11.014231 0,16.521345 0,7.172058 0,14.344113 0,21.51617 0,5.250971 -0.26222,10.508494 0,15.752911 0.12855,2.571012 0.63988,5.113335 0.76843,7.684346 0.23717,4.743273 0.26068,9.476967 0.76844,14.216037 0.75472,7.04404 1.34942,14.16342 2.68952,21.13196 0.78493,4.08161 1.5483,7.81012 1.92109,11.91073 0.12963,1.42602 0.64952,2.79945 0.76843,4.2264 0.27749,3.32988 -0.23785,1.90279 0,4.99482 0.0695,0.90294 0.25615,1.79302 0.38422,2.68952 0,1.66495 -0.0693,3.33133 0,4.99483 0.2835,6.80406 1.0854,13.59149 1.53687,20.36352 0.25492,3.82378 -0.18229,7.69834 0,11.52652 0.0612,1.28565 0.32299,2.55651 0.38422,3.84217 0.20689,4.34472 -0.16718,8.71674 0,13.06339 0.19727,5.129 0.55494,10.24484 0.76843,15.36869 0.20105,4.82515 0,9.77846 0,14.60026 0,2.17723 0.12785,4.35822 0,6.53169 -0.0681,1.15775 -0.31988,2.3 -0.38422,3.45796 -0.25771,4.63885 0.38659,2.29107 -0.38421,6.91591 -1.0313,6.18776 -2.72621,12.09094 -4.61061,18.05822 -4.77726,15.12797 4.0327,-11.79645 -3.45796,9.60543 -0.21573,0.61637 -0.11899,1.32432 -0.38422,1.92109 -0.44745,1.00676 -1.42838,1.7041 -1.92108,2.68951 -0.18112,0.36224 -0.17585,0.80537 -0.38422,1.15266 -0.53328,0.88879 -1.53574,1.34392 -2.3053,1.92109 -3.74726,2.81043 -8.51376,3.37333 -13.06339,4.2264 -4.72111,0.88519 -9.58361,2.37704 -14.21604,3.45794 -5.11325,1.19309 -10.24796,2.29415 -15.3687,3.45795 -3.7043,0.8419 -7.7024,1.95768 -11.52652,2.30531 -1.87797,0.17074 -3.87666,0 -5.76326,0 -4.76934,0 -9.46954,-0.019 -14.21604,-0.38423 -9.73545,-0.74887 -19.53224,-0.59912 -29.20052,-2.30528 -14.56827,-2.57088 -29.113353,-5.75181 -43.800771,-7.68435 -5.449792,-0.71707 -11.045394,-0.73144 -16.521345,-1.15266 -8.458232,-0.65063 -16.878541,-1.93661 -25.358344,-2.30531 -11.256928,-0.48943 -22.749382,-0.99073 -33.42690733,-4.99481 -6.38144567,-2.39305 2.51252753,0.69258 -2.68952127,-1.53688 -0.4853602,-0.20802 -1.0515092,-0.17619 -1.5368693,-0.3842 -1.9138543,-0.82024 -4.1363736,-2.15646 -5.7632601,-3.45797 -2.612458,-2.08997 -3.756855,-5.94839 -4.994825,-8.83701 -1.586186,-3.7011 -3.239088,-7.19308 -4.226391,-11.14229 -1.930452,-7.72181 -1.349302,-15.98226 -2.305304,-23.82147 -0.392523,-3.21869 -1.165196,-6.38427 -1.536869,-9.60544 -1.622573,-14.06229 -3.014617,-28.46126 -3.457956,-42.64812 -0.250164,-8.00522 0.427762,-15.8157 0.768435,-23.82148 0.367797,-8.64324 -0.318758,-2.78913 0,-10.75808 0.128378,-3.20947 0.561636,-6.40006 0.768434,-9.60543 0.114801,-1.77942 0.581049,-11.00215 0.768435,-13.06339 0.820745,-9.0282 2.22179,-17.98311 3.842173,-26.895216 0.399333,-2.19633 1.688307,-9.915109 2.305304,-12.294954 1.248309,-4.814906 1.989012,-5.104043 3.842174,-9.989651 0.764251,-2.014847 4.9892373,-15.351932 4.9948248,-15.368693 1.8185606,-5.455682 4.4331029,-10.65113 6.1474772,-16.137128 0.2620907,-0.838689 0.5890856,-4.277429 0.7684347,-4.994825 0.1672747,-0.6691 0.60116,-1.251987 0.7684347,-1.921087 0.2196424,-0.87857 0.1944659,-1.804014 0.3842173,-2.689521 0.195361,-0.911685 0.59660743,-1.773111 0.76843464,-2.689521 C -0.38269185,29.064309 0.60825276,17.961886 0,16.137128 c -0.21679341,-0.65038 -0.60254191,-1.257516 -0.76843466,-1.921087 -0.24674984,-0.986999 -0.20048378,-6.4981939 0,-7.3001291 0.069457,-0.2778281 0.32805386,-0.4876173 0.38421733,-0.7684346 0.1004683,-0.5023414 -0.36224358,-1.1746257 0,-1.5368694 0.0905609,-0.090561 0.29365644,0.090561 0.38421733,0 C 0.20250031,4.4081078 0.18171702,4.0446737 0.38421733,3.8421733 0.60314829,3.6232422 1.2689564,3.0384345 1.152652,2.6895213 0.82613004,1.7099555 -1.3429188,0.38348057 -0.38421733,0 0.84005951,-0.48971072 1.7889196,1.6245899 3.0737386,1.9210866 3.6318285,2.0498766 4.0743184,1.3537605 4.6106079,1.152652 5.5954382,0.78334065 6.3712608,0.84865159 7.3001292,0.38421733 7.4621296,0.30321721 7.5125193,0.05727574 7.6843466,0 7.927347,-0.08100013 8.209781,0.08100013 8.4527812,0 9.6546928,-0.40063716 10.951908,-1.5368693 12.294955,-1.5368693"
       id="path1" />
    <path
       style="fill:#800000;stroke-width:2.75601"
       d="m -11.142303,257.80983 c -0.434832,3.14838 0.38549,6.15766 0.768435,9.22121 0.042,0.33605 0.262911,4.10509 0.3842175,4.2264 0.090561,0.0905 0.3437173,-0.12149 0.3842173,0 0.1215001,0.36449 -0.075351,0.7759 0,1.15264 0.112327,0.56165 0.6561076,0.97525 0.7684346,1.53688 0.075351,0.37674 -0.063165,0.77367 0,1.15266 -0.133446,0.78174 0.6331752,1.24478 0.7684347,1.92108 0.3645458,1.82272 0.554305,3.19977 1.152652,4.99481 0.1536869,0.46106 -0.1536869,1.07582 0,1.53688 0.4849445,1.45484 0.5974075,2.68714 0.7684346,4.22638 0.1786404,1.60777 0.8413121,3.05393 1.152652,4.61063 0.050234,0.25117 -0.081,0.52543 0,0.76843 0.1145514,0.34364 0.6064345,0.44442 0.7684347,0.76843 0.2624762,0.52496 0.184218,0.93686 0.3842173,1.53686 0.3100425,0.93014 1.7097974,1.97492 2.305304,2.68954 1.13632747,1.36358 1.84610861,3.38296 3.0737386,4.6106 0.1811218,0.18111 0.5873129,-0.18113 0.7684347,0 0.090561,0.0906 -0.102458,0.30737 0,0.3842 1.1352149,0.85143 4.4412688,2.74325 5.7632599,3.07375 1.2590227,0.31477 2.9324521,-0.12939 4.2263911,0 6.38498,0.63849 12.789928,0.10504 19.210866,0.38422 4.804304,0.20889 9.453972,1.62346 14.216041,1.92109 9.609548,0.6006 19.17256,0.76843 28.8163,0.76843 6.442038,0 12.775303,-0.56732 19.210866,-0.76843 4.901954,-0.15319 9.706412,-0.30237 14.600262,-0.76843 5.4836,-0.52226 11.02018,-1.21327 16.52134,-1.53688 4.10214,-0.2413 8.19029,-0.51189 12.29496,-0.76843 1.94015,-0.12126 4.3034,0.15359 6.14747,-0.76843 1.39997,-0.69998 1.57616,-2.62695 2.30531,-3.84218 0.23758,-0.39597 0.44191,-0.82613 0.76843,-1.15265 0.0906,-0.0906 0.32695,0.11456 0.38422,0 0.11455,-0.22911 -0.081,-0.52544 0,-0.76843 0.27664,-0.82992 1.29137,-1.67558 1.92109,-2.30532"
       id="path2" />
    <path
       style="fill:#800000;stroke-width:2.75601"
       d="m 176.35575,254.35187 c -1.68693,4.12268 -5.97961,19.16236 -3.84217,23.43726 1.35346,2.7069 9.46233,8.67051 10.37387,9.22121 3.53001,2.13273 7.35807,3.73922 11.1423,5.37906 7.39168,3.20304 11.73889,5.08005 19.21087,6.14746 3.64705,0.52102 6.77242,-0.22797 10.75808,0.76843 3.79954,0.94991 11.36964,4.47421 14.98448,2.30531 3.31451,-1.98871 6.78545,-4.21923 8.06856,-8.06857 0.51055,-1.53162 0.38422,-3.03707 0.38422,-4.6106 0,-5.69939 -1.18886,-8.40632 -3.84217,-13.44761 -0.91051,-1.72995 -1.44713,-3.91041 -3.07374,-4.99483 -1.42969,-0.95311 -2.96955,-1.79599 -4.61061,-2.30529 -2.11153,-0.65529 -4.34955,-0.79743 -6.53169,-1.15266 -5.36709,-0.8737 -16.37627,-2.53269 -21.51618,-3.07374 -7.64732,-0.80498 -18.48983,-1.36054 -25.74256,-0.38421 -1.57366,0.21184 -4.10807,1.97028 -5.76326,3.07373"
       id="path3" />
    <path
       style="fill:#800000;stroke-width:2.75601"
       d="m 169.05562,290.08408 c 1.49711,6.00856 9.39554,5.9961 14.21605,6.53169 1.67422,0.18603 3.32139,0.57537 4.99482,0.76843 10.68213,1.23256 18.59255,-0.36007 29.20052,-3.07372 0.43324,-0.11083 5.64331,-1.63308 6.14748,-2.30531 0.54293,-0.7239 -0.61269,-8.16208 -0.76844,-8.837 -0.15508,-0.67202 -0.51229,-1.28072 -0.76843,-1.92109"
       id="path4" />
    <path
       style="fill:#800000;stroke-width:2.75601"
       d="M 1.152652,24.205692 C -4.2564502,19.698107 -0.82857291,22.870469 -8.4527812,12.294955 -10.011286,10.133157 -11.585105,7.9806865 -13.063389,5.7632599 c -3.079959,-4.6199377 -5.764651,-8.8265681 -4.994825,-14.6002585 0.216315,-1.6223704 1.486612,-3.7213054 2.305304,-4.9948254 0.595763,-0.926744 1.111538,-1.942246 1.921086,-2.689521 5.66399,-5.228298 16.3972683,-4.887881 23.4372572,-5.379043 16.3693918,-1.14205 32.7641658,-2.433027 49.1798178,-2.689521 8.717256,-0.136207 27.578383,0.170767 34.195342,0.384217 12.219727,0.394185 24.330177,1.675315 36.500647,2.689522 18.74892,1.562409 37.4203,3.499571 56.09573,5.76326 19.17553,2.324306 2.87456,0.148631 18.82665,1.921086 3.30358,0.367065 10.0389,0.433463 12.67917,3.073739 5.85787,5.8578676 10.32255,13.4929135 13.44761,21.131953 1.35193,3.304733 3.63514,9.280905 2.68952,13.063389 -1.11684,4.467357 -3.98593,7.732077 -7.30013,10.758085 -4.54456,4.149381 -9.65814,8.310703 -15.36869,10.758085 -8.17476,3.503467 -17.11498,4.165561 -25.74256,5.76326 -2.23679,0.414221 -6.91932,1.614734 -9.22122,2.305304 -4.11217,1.233652 -2.15626,1.152652 -4.22639,1.152652"
       id="path5" />
    <path
       style="fill:#800000;stroke-width:2.75601"
       d="M 255.50452,125.25485 -46.106079,39.958602"
       id="path6" />
    <path
       style="fill:#800000;stroke-width:2.75601"
       d="M -4.6106079,3.8421733 C -9.4667799,8.1105649 -14.29451,12.4124 -19.595084,16.137128 c -7.094116,4.985054 -12.020386,7.41472 -17.28978,14.600258 -0.677415,0.923748 -0.980559,2.072378 -1.536869,3.073739 -0.36267,0.652806 -0.875302,1.227714 -1.152652,1.921087 -1.036868,2.59217 -0.768434,5.743215 -0.768434,8.452781 0,3.19578 0.786235,5.117949 1.921086,8.068564 0.290775,0.756012 0.380564,1.594207 0.768435,2.305304 2.610323,4.785595 8.149135,7.889655 12.679172,10.373868 9.994266,5.480727 21.0815644,10.373867 32.6584726,10.373867"
       id="path7" />
    <path
       style="fill:#800000;stroke-width:2.75601"
       d="m -10.373868,44.56921 c 2.6883673,-4.439473 2.8707107,-9.877216 5.7632601,-14.216041 0.7551848,-1.132777 1.8459198,-2.005177 2.6895213,-3.073739 1.07940393,-1.367245 2.09007414,-2.788727 3.0737386,-4.22639 2.0238759,-2.957973 3.1416995,-7.12675 6.9159119,-4.610608"
       id="path8" />
    <path
       style="fill:#800000;stroke-width:2.75601"
       d="m -3.0737386,10.758085 c -0.256145,0.51229 -1.2807244,1.280725 -0.7684347,1.53687 0.5122897,0.256144 0.8202896,-2.107275 0.7684347,-1.53687 -1.4289397,15.718338 -1.152652,-2.3611107 -1.152652,9.989651 0,4.578775 0.2739543,8.232256 2.305304,12.294954 0.5800308,1.160063 0.95488593,2.491756 1.9210866,3.457956 2.1377614,2.137762 9.0338986,4.102132 11.52652,1.921087 3.750246,-3.281466 5.76326,-12.091168 5.76326,-16.905563"
       id="path9" />
    <path
       d="m 318.71905,125.88505 q 3.05811,2.16848 13.34449,10.23078 10.8424,8.50712 16.51381,12.34366 5.67141,3.78094 8.0623,4.44816 2.44649,0.66723 8.84072,1.11204 0.22241,0.77843 0.22241,1.72367 0,3.55853 -1.89047,5.5602 -1.83486,1.94607 -5.00418,1.94607 -3.22492,0 -7.72869,-2.33528 -4.50376,-2.39089 -16.4026,-11.34282 l -12.67727,-9.61916 q -6.50544,-5.17099 -12.17685,-7.61748 -1.39005,-0.22241 -3.39172,1.44565 -1.72367,3.50293 -2.44649,8.84073 -0.72283,5.3378 -0.72283,8.28471 -0.77843,15.29056 -6.33863,15.29056 -2.16848,0 -3.44733,-1.44565 -1.27885,-1.39005 -1.27885,-3.55853 0,-1.61246 0.72283,-4.55937 1.66806,-6.89466 4.61497,-40.03348 1.00083,-10.17517 2.50209,-20.461554 1.50126,-10.286379 2.27968,-12.176849 0.77843,-1.89047 2.05728,-2.780103 1.27885,-0.889632 2.44649,-0.889632 5.17099,0 5.05979,6.283031 -3.83654,15.790987 -4.78178,29.357887 -0.33361,4.28135 -0.88963,8.50711 0,0.22241 0,0.44482 0.0556,0.1668 0.61162,-0.0556 0.55602,-0.27801 3.50293,-2.44649 3.00251,-2.22408 6.44984,-5.11538 3.50293,-2.94691 5.5602,-5.2266 1.27885,-1.50125 3.39173,-3.39172 6.89465,-6.17183 10.23078,-9.730361 3.33612,-3.614134 6.22743,-8.562716 4.05894,-7.117063 5.83821,-7.117063 1.94607,0 4.05895,2.112878 2.11288,2.057276 2.11288,4.114552 0,5.337797 -16.90303,20.12794 -3.72533,3.22492 -4.78177,4.28136 -1.89047,1.77927 -13.78931,12.01004 z m 68.50173,-31.415155 q 0,-2.16848 -2.5021,-2.835705 -4.55936,-1.112041 -4.55936,-3.836541 0,-2.057276 1.77926,-4.003348 1.83487,-2.001674 3.89215,-2.001674 l 7.78428,0.222408 q 5.449,0 14.34533,-0.722826 8.84073,-0.722827 13.23329,-0.722827 15.34617,0 24.63171,8.67392 9.34114,8.618318 9.34114,22.741238 0,15.51297 -13.34449,28.30144 -13.28889,12.73287 -37.9206,18.62669 -9.73036,2.33529 -13.17768,4.72618 -4.55937,3.11371 -7.56188,3.11371 -2.11288,0 -3.78094,-2.27968 -1.61246,-2.22408 -1.61246,-3.55853 0,-0.55602 1.11204,-2.89131 1.16764,-2.50209 1.61246,-5.05979 0.50042,-2.55769 0.83403,-9.17434 0.27801,-6.56104 2.00167,-21.18438 1.77927,-14.67894 2.89131,-20.79516 1.00084,-5.337801 1.00084,-7.339475 z m 10.06397,-3.725338 q -6.61665,39.755463 -6.61665,56.102473 0,3.61413 0.72283,5.449 0.44482,0.38921 1.72366,0.38921 3.55854,0 18.62669,-4.67057 15.06816,-4.67057 24.4649,-14.40093 9.39675,-9.73036 9.39675,-22.12962 0,-10.28638 -7.28387,-16.402603 -7.22826,-6.171827 -19.1271,-6.171827 -7.22827,0 -17.40345,1.334449 -2.27968,0.333612 -4.50376,0.500418 z m 91.02055,74.840363 q -8.89633,0 -15.84659,-8.84073 -6.89465,-8.84072 -6.89465,-18.34867 0,-11.23162 6.83905,-25.63255 6.83905,-14.400932 17.84826,-23.464066 11.00921,-9.118736 22.90805,-9.118736 9.11873,0 15.17936,2.279684 6.06062,2.224082 10.898,6.449838 4.83738,4.225755 6.44984,8.67392 1.61246,4.44816 1.61246,12.45486 0,7.56188 -4.55937,17.68145 -4.55937,10.11957 -14.23413,19.73873 -9.61915,9.61915 -18.23747,13.90051 -8.61832,4.22576 -21.96281,4.22576 z M 475.73924,137.8951 q 0,7.72868 4.89298,13.01088 4.89298,5.28219 11.34281,5.28219 16.79182,0 30.85914,-15.45737 14.06732,-15.45737 14.06732,-32.80521 0,-6.61664 -2.61329,-10.397582 -2.5577,-3.836542 -8.28471,-6.50544 -5.72701,-2.724501 -12.84407,-2.724501 -12.45486,0 -24.96532,16.903023 -12.45486,16.90302 -12.45486,32.69401 z m -184.76561,81.01218 q 2.11287,0 3.72533,1.55686 1.61246,1.50125 1.61246,3.83654 0,3.94775 -2.44649,17.29224 -3.00251,16.347 -4.22575,34.86248 -1.22325,18.45989 -1.22325,23.13046 0,2.55769 -2.33528,5.05978 -2.27969,2.5021 -4.00335,2.5021 -1.83487,0 -3.44733,-1.50126 -1.61246,-1.44565 -1.61246,-3.66973 0,-2.00168 1.72366,-14.17853 1.44566,-10.28638 1.44566,-14.84574 0,-2.6689 -0.77843,-3.66974 -0.77843,-1.00084 -2.6133,-1.00084 -2.7801,0 -10.898,0.61163 -8.78512,0.72282 -10.9536,0.72282 -2.27969,0 -11.62083,0.72283 -9.28554,0.72283 -10.28638,1.27885 -0.94524,0.50041 -2.00168,7.33947 -1.00083,6.78345 -1.22324,11.28721 -0.27801,7.72869 -1.77927,12.78848 -1.44565,5.00418 -3.78094,5.00418 -1.61246,0 -4.00334,-2.55769 -2.33529,-2.5021 -2.33529,-5.05979 0,-2.22408 1.33445,-7.61748 1.83487,-7.39507 4.39256,-26.41098 2.6133,-19.0159 4.50377,-39.53305 0.1112,-1.33445 1.50125,-2.72451 1.39005,-1.39005 2.94691,-1.39005 5.449,0 5.449,7.83989 0,4.61497 -2.00167,14.84575 -1.77927,9.22994 -1.77927,13.34449 0,1.72367 1.11204,2.50209 1.11205,0.77843 5.2822,0.77843 9.11874,0 24.5205,-1.44565 15.45737,-1.50126 16.62502,-4.22576 1.22324,-2.7801 2.44649,-12.51046 1.27884,-9.78596 1.27884,-20.40595 0,-1.22325 1.72367,-2.89131 1.72366,-1.66806 3.72534,-1.66806 z M 311.88,288.24304 q 0,-1.11204 1.66806,-13.5669 1.66806,-12.51046 3.16932,-29.02427 1.50125,-16.56941 1.89047,-18.51548 0.44481,-1.94608 1.77926,-3.16932 1.39005,-1.22325 4.28136,-1.22325 1.83487,0 3.28052,1.55686 1.44565,1.55686 1.44565,3.39173 0,2.39088 -1.00083,7.78428 -1.44566,7.39508 -4.22576,30.02511 -2.7245,22.63004 -2.7245,25.63255 0,1.94607 0.55602,2.66889 0.61162,0.66723 2.22408,0.66723 2.6133,0 12.34366,-1.61246 6.00502,-0.94523 22.68564,-1.83487 3.00251,-0.1112 7.39507,-1.27884 0.83403,-0.22241 1.22324,-0.22241 2.11288,0 3.33613,1.39005 1.22324,1.39005 1.22324,3.33612 0,3.16932 -2.44649,5.05979 -2.44649,1.83487 -5.449,1.83487 -1.16764,0 -4.61497,-0.33362 -3.50293,-0.27801 -5.22659,-0.27801 -18.12627,0 -34.97369,5.67141 -2.83571,0.94524 -5.11539,0.94524 -2.50209,0 -3.89215,-2.16848 -1.33444,-2.16848 -1.33444,-4.22576 0,-1.22324 1.05643,-5.3378 1.16765,-4.83737 1.44566,-7.17266 z m 133.0001,-56.04687 q -0.1668,0.0556 -3.05811,-0.0556 -2.8357,-0.1112 -5.83821,0.55602 -3.00252,0.72283 -5.3378,0.88963 -1.61246,0.11121 -3.50293,0.44482 -2.39089,0.44482 -9.45235,0.50042 -10.61999,0.1668 -13.40009,1.44565 -2.7245,1.27885 -3.05812,5.2822 -0.27801,3.05811 -1.16764,6.72784 -2.7245,10.95361 -2.7245,14.56774 l 0.83403,0.0556 q 2.6133,0.16681 10.56439,-0.72282 7.95109,-0.88964 11.89884,-1.77927 8.1179,-1.94607 12.39926,-1.94607 6.95025,0 6.95025,3.72534 0,4.55937 -4.67057,5.6158 -4.61497,1.00084 -19.34951,2.6133 -18.01507,2.00167 -19.23831,3.61413 -1.16765,1.55686 -2.50209,10.17518 -1.33445,8.61832 -1.33445,11.00921 v 0.61162 q 0.27801,2.7801 3.55853,3.16932 l 1.00083,0.0556 q 3.05812,0.1668 7.28387,-0.50042 l 10.6756,-1.55686 q 5.94942,-0.83403 12.06564,-1.94607 7.61748,-1.61246 9.67476,-1.61246 1.55686,0 3.44733,1.33445 1.94607,1.27885 1.94607,4.11455 0,2.05728 -1.00084,2.83571 -5.67141,2.50209 -14.62334,2.7801 -7.72868,0.27801 -24.13129,2.61329 -8.2847,1.22325 -10.898,1.22325 -6.50544,0 -8.1735,-1.05644 -1.61246,-1.00084 -1.94607,-5.00418 l -0.22241,-1.89047 v -0.22241 q 0,-0.88963 1.00083,-3.61413 1.39006,-3.94775 3.22492,-15.01256 1.89047,-11.06481 2.44649,-17.51464 0.27801,-2.22409 0.88964,-5.3934 2.44649,-13.28889 2.44649,-21.01758 0,-0.38921 -1.11204,-2.05728 -0.27801,-0.33361 -0.38922,-0.55602 -0.38921,-1.27884 -0.72283,-2.11287 -0.38921,-0.77843 -0.38921,-1.83487 v -0.55602 q 0,-1.22325 1.50126,-2.16848 1.50125,-0.94524 2.8913,-0.94524 h 0.16681 q 2.33528,0 5.3378,0.33362 h 0.2224 q 1.27885,0 12.34366,-1.05644 11.06481,-1.05644 26.41097,-3.66974 1.61246,-0.27801 1.94608,-0.27801 l 0.83403,-0.0556 q 4.33696,-0.27801 5.94942,0.88963 1.66806,1.11204 2.05727,4.39256 0,1.55686 -1.44565,3.00251 -1.44566,1.44566 -2.27969,1.55686 z m 24.3537,4.61497 q 0,-2.16848 -2.5021,-2.8357 -4.55936,-1.11204 -4.55936,-3.83654 0,-2.05728 1.77926,-4.00335 1.83487,-2.00168 3.89215,-2.00168 l 7.78428,0.22241 q 5.449,0 14.34533,-0.72282 8.84073,-0.72283 13.23329,-0.72283 15.34617,0 24.63171,8.67392 9.34114,8.61832 9.34114,22.74124 0,15.51297 -13.34449,28.30144 -13.28889,12.73287 -37.9206,18.62669 -9.73036,2.33529 -13.17768,4.72617 -4.55937,3.11372 -7.56188,3.11372 -2.11288,0 -3.78094,-2.27969 -1.61246,-2.22408 -1.61246,-3.55853 0,-0.55602 1.11204,-2.8913 1.16764,-2.5021 1.61246,-5.05979 0.50042,-2.55769 0.83403,-9.17434 0.27801,-6.56104 2.00167,-21.18438 1.77927,-14.67894 2.89131,-20.79517 1.00084,-5.33779 1.00084,-7.33947 z m 10.06397,-3.72534 q -6.61665,39.75547 -6.61665,56.10247 0,3.61414 0.72283,5.44901 0.44482,0.38921 1.72366,0.38921 3.55854,0 18.62669,-4.67057 15.06816,-4.67057 24.4649,-14.40093 9.39675,-9.73036 9.39675,-22.12962 0,-10.28638 -7.28387,-16.40261 -7.22826,-6.17182 -19.1271,-6.17182 -7.22827,0 -17.40345,1.33445 -2.27968,0.33361 -4.50376,0.50041 z m 111.42652,-8.72952 q 0.50042,0.38922 0.50042,2.7245 0,2.39089 -0.50042,3.61414 l 0.72283,2.33528 q 1.83487,6.56104 3.61413,10.7868 2.22409,5.67141 4.39257,12.17685 4.94858,14.95695 10.28637,25.63255 5.3934,10.61999 9.84157,14.95695 2.7801,2.7245 3.44733,3.78094 0.72282,1.00083 0.72282,2.39089 0,2.44649 -1.66806,4.11455 -1.61246,1.72366 -3.89214,1.72366 -7.11707,0 -17.23664,-22.40763 -4.05895,-8.84072 -4.89298,-8.84072 -2.6689,0 -11.50962,1.61246 -8.78513,1.61246 -16.069,3.78094 -4.17015,1.27884 -5.28219,1.27884 -1.39005,0 -2.89131,-1.39005 -0.27801,-0.22241 -0.66722,-0.22241 -1.22325,0 -5.2822,7.22827 -6.67224,11.95444 -8.45151,14.28973 -1.72366,2.27968 -3.83654,2.27968 -1.50126,0 -3.61414,-1.77926 -2.11287,-1.72367 -2.11287,-3.55853 0,-1.77927 2.00167,-4.78178 2.00167,-3.05811 8.1735,-12.23245 11.00921,-16.2914 18.57109,-30.58113 11.95444,-22.74124 15.17936,-26.80019 3.22492,-4.11455 4.94858,-4.11455 3.66974,0 5.5046,2.00167 z m 3.39173,44.20363 q -1.94607,-4.44816 -5.72701,-16.2914 -4.11455,-12.62166 -5.2266,-15.34616 -3.05811,6.44983 -9.45234,18.29307 l -10.06398,19.0715 q 1.16765,-0.88963 6.17183,-1.44565 3.83654,-0.38921 6.67225,-1.00084 15.17936,-3.05811 17.62585,-3.28052 z m 16.12459,-74.61795 q -0.22241,0.1112 -0.55602,0.33361 -0.38921,0.22241 -1.00083,0.50042 -3.72534,1.72367 -15.45737,10.6756 -4.83738,3.72533 -7.33948,5.33779 l -1.27884,0.77843 q -1.44566,0 -2.5577,-1.39005 -1.11204,-1.39005 -1.11204,-2.8357 0,-2.83571 8.50712,-9.28555 8.56271,-6.44984 15.34616,-10.23077 2.5577,-1.44566 3.83654,-2.5021 0.94524,-0.77843 1.00084,-0.61162 0.94524,0 2.16848,2.05728 1.27885,2.05727 1.27885,3.16931 0,0.66723 -1.05644,2.11288 -1.05644,1.44565 -1.77927,1.89047 z M 296.50603,378.65197 q -0.61162,-1.11204 -0.61162,-2.7801 0,-2.50209 1.77926,-3.39173 1.83487,-0.88963 10.8424,-1.00083 11.06481,-0.0556 19.84994,-0.77843 8.84072,-0.77843 27.1894,-3.28052 6.95025,-0.94524 13.23329,-0.94524 3.16931,0 6.00502,0.38922 2.89131,0.38921 4.05895,0.77843 1.22324,0.33361 1.94607,2.00167 0.72283,1.61246 0.72283,2.50209 0,3.94775 -2.78011,3.94775 -1.83486,0 -5.00418,-0.33362 -3.22492,-0.27801 -8.72952,-0.27801 -5.67141,0 -13.78931,0.83404 -8.0623,0.77842 -8.95193,2.61329 -0.88963,1.83487 -2.94691,21.6848 -2.00167,19.84993 -2.00167,29.58029 0,4.50377 1.39005,10.39759 0.22241,1.11204 0.22241,1.33445 0,2.44649 -1.33445,4.39256 -1.33445,2.00167 -3.22492,2.00167 -2.89131,0 -4.83738,-2.7801 -1.89047,-2.7801 -1.89047,-15.56858 0,-12.12124 4.61497,-47.31734 0.22241,-1.89047 0.22241,-1.94607 0,-1.89047 -2.05728,-1.89047 -3.33612,0 -12.73287,0.83403 -9.39675,0.88963 -13.40009,0.88963 -6.00502,0 -7.78429,-1.89047 z m 146.17779,-4.11455 q -0.1668,0.0556 -3.05811,-0.0556 -2.8357,-0.11121 -5.83821,0.55602 -3.00252,0.72282 -5.3378,0.88963 -1.61246,0.1112 -3.50293,0.44482 -2.39089,0.44481 -9.45235,0.50042 -10.61999,0.1668 -13.40009,1.44565 -2.7245,1.27885 -3.05812,5.28219 -0.27801,3.05812 -1.16764,6.72785 -2.7245,10.95361 -2.7245,14.56774 l 0.83403,0.0556 q 2.6133,0.16681 10.56439,-0.72283 7.95109,-0.88963 11.89884,-1.77926 8.1179,-1.94607 12.39926,-1.94607 6.95025,0 6.95025,3.72533 0,4.55937 -4.67057,5.61581 -4.61497,1.00084 -19.34951,2.6133 -18.01507,2.00167 -19.23831,3.61413 -1.16765,1.55686 -2.5021,10.17518 -1.33444,8.61832 -1.33444,11.0092 v 0.61163 q 0.27801,2.7801 3.55853,3.16931 l 1.00083,0.0556 q 3.05812,0.16681 7.28387,-0.50041 l 10.6756,-1.55686 q 5.94942,-0.83403 12.06564,-1.94607 7.61748,-1.61246 9.67476,-1.61246 1.55686,0 3.44733,1.33445 1.94607,1.27884 1.94607,4.11455 0,2.05727 -1.00084,2.8357 -5.67141,2.5021 -14.62334,2.78011 -7.72868,0.27801 -24.13129,2.61329 -8.28471,1.22325 -10.898,1.22325 -6.50544,0 -8.1735,-1.05644 -1.61246,-1.00084 -1.94608,-5.00419 l -0.2224,-1.89047 v -0.2224 q 0,-0.88964 1.00083,-3.61414 1.39005,-3.94774 3.22492,-15.01255 1.89047,-11.06481 2.44649,-17.51465 0.27801,-2.22408 0.88964,-5.3934 2.44649,-13.28889 2.44649,-21.01757 0,-0.38922 -1.11205,-2.05728 -0.27801,-0.33361 -0.38921,-0.55602 -0.38921,-1.27885 -0.72283,-2.11288 -0.38921,-0.77842 -0.38921,-1.83486 v -0.55602 q 0,-1.22325 1.50125,-2.16848 1.50126,-0.94524 2.89131,-0.94524 h 0.16681 q 2.33528,0 5.33779,0.33361 h 0.22241 q 1.27885,0 12.34366,-1.05644 11.06481,-1.05643 26.41097,-3.66973 1.61246,-0.27801 1.94607,-0.27801 l 0.83404,-0.0556 q 4.33696,-0.27801 5.94941,0.88963 1.66807,1.11204 2.05728,4.39256 0,1.55686 -1.44565,3.00251 -1.44566,1.44566 -2.27969,1.55686 z m 71.55984,57.54812 q 3.39172,-13.23329 6.61664,-32.5272 3.28052,-19.34951 3.28052,-27.02259 0,-4.05895 0.61163,-5.50461 0.66722,-1.44565 2.66889,-2.50209 2.05728,-1.05644 4.44817,-1.05644 1.55686,0 2.6689,2.22408 1.11204,2.22409 1.11204,5.2822 0,2.39089 -1.77927,8.45151 -3.50293,13.78931 -6.89465,32.74961 -3.39173,18.9047 -3.39173,21.8516 0,5.94942 0.16681,7.50628 0.22241,2.89131 -1.89047,4.55937 -2.05728,1.66806 -5.449,1.66806 -2.00168,0 -2.7245,-0.55602 -0.66723,-0.50042 -2.89131,-2.94691 -2.16848,-2.44649 -2.7245,-4.72617 -0.44482,-2.11288 -3.39173,-5.56021 -16.01339,-20.46155 -28.80186,-44.70405 -3.61413,12.84408 -6.72785,35.64092 l -1.39005,9.28554 q -0.22241,1.39005 -0.22241,5.61581 0.0556,4.17015 -0.44481,5.61581 -0.44482,1.44565 -2.22408,3.28052 -1.72367,1.89047 -3.33613,1.89047 -3.72533,0 -4.39256,-3.22492 -0.66722,-3.16932 -0.66722,-4.89298 0,-4.05895 2.44649,-13.23329 2.44649,-9.11874 6.00502,-28.07904 3.61413,-18.9603 3.61413,-24.07569 l -0.0556,-3.05811 q 0.0556,-1.61246 0.61162,-2.8357 0.61162,-1.27885 2.22408,-2.16848 1.66807,-0.88964 3.28052,-0.88964 1.50126,0 2.78011,0.66723 1.27884,0.61162 1.83487,1.94607 0.55602,1.27885 1.33444,4.83738 2.22409,10.7868 13.73371,28.85746 11.56523,18.01507 19.96114,27.63422 z M 274.68222,574.42679 q 3.39173,-13.23329 6.61665,-32.5272 3.28052,-19.34951 3.28052,-27.0226 0,-4.05895 0.61162,-5.5046 0.66723,-1.44565 2.6689,-2.50209 2.05728,-1.05644 4.44817,-1.05644 1.55685,0 2.66889,2.22408 1.11204,2.22408 1.11204,5.2822 0,2.39088 -1.77926,8.45151 -3.50293,13.78931 -6.89466,32.74961 -3.39172,18.90469 -3.39172,21.8516 0,5.94942 0.16681,7.50628 0.2224,2.89131 -1.89047,4.55937 -2.05728,1.66806 -5.44901,1.66806 -2.00167,0 -2.7245,-0.55602 -0.66722,-0.50042 -2.8913,-2.94691 -2.16848,-2.44649 -2.7245,-4.72617 -0.44482,-2.11288 -3.39173,-5.56021 -16.01339,-20.46155 -28.80186,-44.70405 -3.61413,12.84407 -6.72785,35.64092 l -1.39005,9.28554 q -0.22241,1.39005 -0.22241,5.61581 0.0556,4.17015 -0.44481,5.6158 -0.44482,1.44566 -2.22409,3.28052 -1.72366,1.89047 -3.33612,1.89047 -3.72534,0 -4.39256,-3.22492 -0.66723,-3.16931 -0.66723,-4.89298 0,-4.05895 2.44649,-13.23328 2.44649,-9.11874 6.00503,-28.07904 3.61413,-18.9603 3.61413,-24.07569 l -0.0556,-3.05811 q 0.0556,-1.61246 0.61162,-2.83571 0.61162,-1.27884 2.22408,-2.16848 1.66806,-0.88963 3.28052,-0.88963 1.50126,0 2.7801,0.66723 1.27885,0.61162 1.83487,1.94607 0.55602,1.27884 1.33445,4.83738 2.22408,10.78679 13.73371,28.85746 11.56523,18.01507 19.96113,27.63422 z m 80.28936,-65.38801 q 0.50042,0.38921 0.50042,2.7245 0,2.39089 -0.50042,3.61413 l 0.72283,2.33529 q 1.83487,6.56104 3.61413,10.7868 2.22409,5.67141 4.39257,12.17685 4.94858,14.95695 10.28638,25.63254 5.3934,10.61999 9.84156,14.95695 2.7801,2.7245 3.44733,3.78094 0.72282,1.00084 0.72282,2.39089 0,2.44649 -1.66806,4.11455 -1.61246,1.72367 -3.89214,1.72367 -7.11706,0 -17.23664,-22.40763 -4.05895,-8.84073 -4.89298,-8.84073 -2.6689,0 -11.50962,1.61246 -8.78513,1.61246 -16.069,3.78094 -4.17015,1.27885 -5.28219,1.27885 -1.39005,0 -2.89131,-1.39005 -0.27801,-0.22241 -0.66722,-0.22241 -1.22325,0 -5.2822,7.22827 -6.67224,11.95444 -8.45151,14.28972 -1.72366,2.27969 -3.83654,2.27969 -1.50126,0 -3.61413,-1.77927 -2.11288,-1.72366 -2.11288,-3.55853 0,-1.77927 2.00167,-4.78178 2.00168,-3.05811 8.1735,-12.23245 11.00921,-16.2914 18.57109,-30.58113 11.95444,-22.74123 15.17936,-26.80018 3.22492,-4.11456 4.94858,-4.11456 3.66974,0 5.5046,2.00168 z m 3.39173,44.20363 q -1.94607,-4.44817 -5.72701,-16.2914 -4.11455,-12.62167 -5.22659,-15.34617 -3.05812,6.44984 -9.45235,18.29308 l -10.06397,19.0715 q 1.16764,-0.88963 6.17182,-1.44565 3.83655,-0.38922 6.67225,-1.00084 15.17936,-3.05811 17.62585,-3.28052 z m 87.85124,-48.59619 q 1.72366,0 3.05811,1.22324 1.39005,1.22325 1.39005,2.7245 0,13.6225 -3.22492,36.30814 -3.16931,22.63004 -10.23077,33.52804 -7.06146,10.898 -19.07151,10.898 -9.17434,0 -19.1271,-6.72785 -9.89717,-6.72785 -9.89717,-11.39842 0,-4.89298 5.5046,-4.89298 1.72367,0 4.83738,3.05811 10.23078,10.28638 18.8491,10.28638 7.50628,0 12.12125,-8.00669 4.67057,-8.0623 7.50627,-26.9114 2.83571,-18.90469 2.83571,-35.4741 0,-1.72367 1.83487,-3.16932 1.83486,-1.44565 3.61413,-1.44565 z m 29.63589,16.84742 q 0,-2.16848 -2.50209,-2.83571 -4.55937,-1.11204 -4.55937,-3.83654 0,-2.05727 1.77927,-4.00335 1.83487,-2.00167 3.89214,-2.00167 l 7.78429,0.22241 q 5.449,0 14.34533,-0.72283 8.84072,-0.72283 13.23329,-0.72283 15.34616,0 24.6317,8.67392 9.34115,8.61832 9.34115,22.74124 0,15.51298 -13.34449,28.30145 -13.28889,12.73287 -37.9206,18.62668 -9.73036,2.33529 -13.17769,4.72618 -4.55937,3.11371 -7.56188,3.11371 -2.11288,0 -3.78094,-2.27968 -1.61246,-2.22408 -1.61246,-3.55853 0,-0.55602 1.11204,-2.89131 1.16765,-2.50209 1.61246,-5.05978 0.50042,-2.5577 0.83404,-9.17434 0.27801,-6.56105 2.00167,-21.18438 1.77926,-14.67895 2.89131,-20.79517 1.00083,-5.3378 1.00083,-7.33947 z m 10.06397,-3.72534 q -6.61664,39.75547 -6.61664,56.10247 0,3.61413 0.72283,5.449 0.44481,0.38922 1.72366,0.38922 3.55853,0 18.62669,-4.67058 15.06815,-4.67057 24.4649,-14.40093 9.39675,-9.73036 9.39675,-22.12961 0,-10.28638 -7.28387,-16.40261 -7.22827,-6.17183 -19.12711,-6.17183 -7.22826,0 -17.40344,1.33445 -2.27968,0.33361 -4.50377,0.50042 z m 133.94535,-0.88963 q -0.16681,0.0556 -3.05812,-0.0556 -2.8357,-0.11121 -5.83821,0.55602 -3.00251,0.72282 -5.3378,0.88963 -1.61246,0.1112 -3.50293,0.44481 -2.39089,0.44482 -9.45235,0.50042 -10.61999,0.16681 -13.40009,1.44566 -2.7245,1.27884 -3.05811,5.28219 -0.27801,3.05811 -1.16765,6.72785 -2.7245,10.9536 -2.7245,14.56774 l 0.83403,0.0556 q 2.6133,0.16681 10.56439,-0.72283 7.9511,-0.88963 11.89884,-1.77926 8.1179,-1.94607 12.39926,-1.94607 6.95026,0 6.95026,3.72533 0,4.55937 -4.67058,5.61581 -4.61497,1.00084 -19.34951,2.6133 -18.01506,2.00167 -19.23831,3.61413 -1.16764,1.55686 -2.50209,10.17517 -1.33445,8.61832 -1.33445,11.00921 v 0.61162 q 0.27801,2.78011 3.55853,3.16932 l 1.00084,0.0556 q 3.05811,0.16681 7.28387,-0.50042 l 10.67559,-1.55685 q 5.94942,-0.83403 12.06564,-1.94608 7.61749,-1.61245 9.67476,-1.61245 1.55686,0 3.44733,1.33444 1.94607,1.27885 1.94607,4.11456 0,2.05727 -1.00084,2.8357 -5.67141,2.50209 -14.62334,2.7801 -7.72868,0.27801 -24.13129,2.6133 -8.2847,1.22325 -10.898,1.22325 -6.50544,0 -8.1735,-1.05644 -1.61246,-1.00084 -1.94607,-5.00419 l -0.22241,-1.89047 v -0.22241 q 0,-0.88963 1.00084,-3.61413 1.39005,-3.94775 3.22492,-15.01255 1.89047,-11.06481 2.44649,-17.51465 0.27801,-2.22408 0.88963,-5.3934 2.44649,-13.28889 2.44649,-21.01757 0,-0.38922 -1.11204,-2.05728 -0.27801,-0.33361 -0.38922,-0.55602 -0.38921,-1.27885 -0.72282,-2.11288 -0.38922,-0.77843 -0.38922,-1.83487 v -0.55602 q 0,-1.22324 1.50126,-2.16848 1.50125,-0.94523 2.8913,-0.94523 h 0.16681 q 2.33529,0 5.3378,0.33361 h 0.22241 q 1.27884,0 12.34365,-1.05644 11.06481,-1.05644 26.41098,-3.66973 1.61246,-0.27801 1.94607,-0.27801 l 0.83403,-0.0556 q 4.33696,-0.27801 5.94942,0.88964 1.66806,1.11204 2.05727,4.39256 0,1.55686 -1.44565,3.00251 -1.44565,1.44565 -2.27968,1.55686 z"
       id="text9"
       style="font-size:113.873px;font-family:'Segoe Print';-inkscape-font-specification:'Segoe Print, Normal';text-align:center;text-anchor:middle;white-space:pre;fill:#ff00ff;stroke-width:10.4164"
       transform="matrix(0.47902587,0,0,0.52940802,-96.847566,-30.454904)"
       aria-label="KDO HLEDÁ TEN NAJDE" />
  </g>
</svg>
